<svg id="laravel" xmlns="http://www.w3.org/2000/svg" width="285" height="300" viewBox="0 0 285 300">
  <defs>
    <style>
      .cls-1 {
        fill: #e6ff00;
        clip-path: url(#clip-Canvas);
      filter: drop-shadow(0px 0px 20px rgb(230 255 0/0.9));
      }
      .cls-1:hover {
        filter: drop-shadow(0px 0px 30px rgb(230 255 0/0.9));
      }
    </style>
  </defs>
   <clipPath id="clip-Canvas">
      <rect class =" cls-2" width="512" height="512"/>
    </clipPath>
  <path id="Trazado_1" data-name="Trazado 1" class="cls-1" d="M160.445,208c2,2.889,3.222,2.667,4.777,2s81.556-27.667,84-28.555,1.667-1.667.89-2.89S222.667,141.111,221.333,139s-2-1.667-4.111-1l-84.8,22.067S158.445,205.11,160.445,208ZM256,171.115v-42.4c-9.541,2.542-21.609,5.756-26.373,7.023C236.814,145.356,248.05,160.4,256,171.115ZM229.545,83.521c-1.307.3-30.247,5.527-32.03,5.764s-1.188,1.248-.475,2.258l25.467,34.943s31.139-7.725,33.041-8.141c.154-.034.3-.07.452-.107v-4.627c-5.66-7.177-21.08-26.718-22.413-28.544-1.6-2.2-2.734-1.842-4.042-1.546Z" transform="translate(29 28.439)"/>
  <path id="Trazado_2" data-name="Trazado 2" class="cls-1" d="M52.592,28.634c6.984-.285,7.622,1.141,10.69,5.224L140.367,149.5l96.926-20.835c-5.37-6.831-29.75-37.846-32.107-40.806-2.648-3.328.067-4.873,4.372-5.526s41.39-6.24,44.568-6.656,5.7-1.426,10.861,4.16c2.643,2.858,11.6,12.87,20.012,22.255V48q0-19.833-15.695-33.917T231.507,0H53.2Q31.1,0,15.4,14.083A46.839,46.839,0,0,0,2.57,32.134c17.472-1.288,45.136-3.3,50.023-3.5Z" transform="translate(0)"/>
  <path id="Trazado_3" data-name="Trazado 3" class="cls-1" d="M187.353,259.737c-8.165,2.758-11.826,4.127-17.145-4.148-3.983-6.2-25.524-49.457-36.086-70.782-19.989,5.837-56.57,16.482-67.12,19.308-10.3,2.758-14.693-4.125-16.384-8.366C49.433,192.772,19.248,120.208,0,73.65V240.418q0,24.62,15.678,42.1T53.438,300H231.563q22.08,0,37.759-17.481T285,240.418V220.829C263.135,229.746,192.854,257.879,187.353,259.737Z"/>
  <path id="Trazado_4" data-name="Trazado 4" class="cls-1" d="M60.412,165.288c2.6-.6,51.313-12.253,52.353-12.476s1.708-.817.594-2.747S48.425,37.975,48.425,37.975c-.589-1.011-.421-1.348-2.022-1.264-1.427.076-37.538,3.3-45.9,4a51.038,51.038,0,0,0-.461,5.331c8.487,17.375,57.2,117.837,57.472,118.655.3.892.3,1.189,2.9.6Z"/>
</svg>
