<?xml version="1.0" encoding="utf-8"?>
<!-- Generator: Adobe Illustrator 16.0.0, SVG Export Plug-In . SVG Version: 6.00 Build 0)  -->
<!DOCTYPE svg PUBLIC "-//W3C//DTD SVG 1.1//EN" "http://www.w3.org/Graphics/SVG/1.1/DTD/svg11.dtd">
<svg version="1.1" id="Capa_1" xmlns="http://www.w3.org/2000/svg" xmlns:xlink="http://www.w3.org/1999/xlink" x="0px" y="0px"
	 width="25px" height="25px" viewBox="110 0 36 36" enable-background="new 110 0 36 36" xml:space="preserve">
<g>
	<g>
		<path fill="#e6ff00" d="M124.768,10.991c0,0.615,0,3.36,0,3.36h-2.461v4.108h2.461v11.273h5.057V18.46h3.393
			c0,0,0.318-1.97,0.471-4.124c-0.441,0-3.846,0-3.846,0s0-2.391,0-2.81s0.551-0.984,1.096-0.984s1.693,0,2.756,0
			c0-0.56,0-2.492,0-4.277c-1.418,0-3.034,0-3.746,0C124.642,6.265,124.768,10.378,124.768,10.991z"/>
		<path fill="#e6ff00" d="M135.232,0.001h-14.464c-5.669,0-10.283,4.611-10.283,10.283v15.433c0,5.668,4.614,10.282,10.283,10.282
			h14.464c5.668,0,10.282-4.614,10.282-10.282V10.284C145.515,4.612,140.9,0.001,135.232,0.001z M142.879,25.717
			c0,4.215-3.432,7.646-7.646,7.646h-14.464c-4.216,0-7.646-3.431-7.646-7.646V10.284c0-4.219,3.43-7.647,7.646-7.647h14.464
			c4.215,0,7.646,3.429,7.646,7.647V25.717z"/>
	</g>
</g>
</svg>
