<?xml version="1.0" encoding="utf-8"?>
<!-- Generator: Adobe Illustrator 16.0.0, SVG Export Plug-In . SVG Version: 6.00 Build 0)  -->
<!DOCTYPE svg PUBLIC "-//W3C//DTD SVG 1.1//EN" "http://www.w3.org/Graphics/SVG/1.1/DTD/svg11.dtd">
<svg version="1.1" id="Capa_1" xmlns="http://www.w3.org/2000/svg" xmlns:xlink="http://www.w3.org/1999/xlink" x="0px" y="0px"
	 width="25px" height="25px" viewBox="110 0 36 36" enable-background="new 110 0 36 36" xml:space="preserve">
<path fill="#e6ff00" d="M135.232,0.001h-14.463c-5.672,0-10.283,4.611-10.283,10.283v15.433c0,5.668,4.611,10.282,10.283,10.282
	h14.463c5.668,0,10.281-4.614,10.281-10.282V10.284C145.514,4.612,140.9,0.001,135.232,0.001z M142.877,25.717
	c0,4.215-3.43,7.646-7.645,7.646h-14.463c-4.219,0-7.646-3.431-7.646-7.646V10.284c0-4.219,3.428-7.647,7.646-7.647h14.463
	c4.215,0,7.645,3.429,7.645,7.647V25.717z M128.045,8.386c-0.088-0.002-0.179-0.003-0.27-0.003c-2.505,0-4.86,1.012-6.632,2.852
	c-1.746,1.813-2.711,4.197-2.711,6.716c0,5.273,4.292,9.563,9.565,9.563c2.546,0,4.937-0.996,6.732-2.807
	c1.77-1.784,2.777-4.172,2.834-6.721c0.059-2.662-0.762-4.979-2.371-6.696C133.494,9.477,131.025,8.474,128.045,8.386z
	 M134.342,17.915c-0.08,3.574-2.865,6.375-6.343,6.375c-3.495,0-6.339-2.845-6.339-6.34c0-3.499,2.744-6.345,6.116-6.345
	c0.059,0,0.117,0,0.176,0.003C132.035,11.729,134.424,14.084,134.342,17.915z M140.023,8.116c0,1.231-0.998,2.229-2.229,2.229
	c-1.232,0-2.232-0.998-2.232-2.229c0-1.233,1-2.23,2.232-2.23C139.025,5.886,140.023,6.883,140.023,8.116z"/>
</svg>
