<?xml version="1.0" encoding="utf-8"?>
<!-- Generator: Adobe Illustrator 16.0.0, SVG Export Plug-In . SVG Version: 6.00 Build 0)  -->
<!DOCTYPE svg PUBLIC "-//W3C//DTD SVG 1.1//EN" "http://www.w3.org/Graphics/SVG/1.1/DTD/svg11.dtd">
<svg version="1.1" id="Capa_1" xmlns="http://www.w3.org/2000/svg" xmlns:xlink="http://www.w3.org/1999/xlink" x="0px" y="0px"
	 width="25px" height="25px" viewBox="110 0 36 36" enable-background="new 110 0 36 36" xml:space="preserve">
<path fill="#000" d="M135.467,12.658c0.811-0.095,1.582-0.308,2.301-0.621c-0.537,0.791-1.217,1.487-2,2.043
	c0.008,0.168,0.01,0.34,0.01,0.51c0,5.215-4.029,11.224-11.403,11.224c-2.263,0-4.369-0.653-6.143-1.77
	c0.313,0.035,0.631,0.053,0.954,0.053c1.881,0,3.608-0.63,4.98-1.688c-1.755-0.032-3.234-1.175-3.745-2.739
	c0.246,0.044,0.495,0.07,0.754,0.07c0.366,0,0.721-0.05,1.058-0.138c-1.834-0.366-3.217-1.957-3.217-3.872c0-0.015,0-0.031,0-0.048
	c0.539,0.296,1.16,0.473,1.816,0.494c-1.075-0.708-1.784-1.916-1.784-3.283c0-0.724,0.199-1.403,0.544-1.985
	c1.976,2.388,4.929,3.958,8.26,4.122c-0.065-0.289-0.104-0.589-0.104-0.899c0-2.178,1.796-3.945,4.007-3.945
	c1.154,0,2.195,0.479,2.926,1.247c0.914-0.177,1.77-0.507,2.547-0.958C136.926,11.396,136.293,12.17,135.467,12.658z
	 M145.514,10.283v15.434c0,5.668-4.613,10.282-10.281,10.282h-14.464c-5.67,0-10.282-4.614-10.282-10.282V10.283
	c0-5.67,4.612-10.283,10.282-10.283h14.464C140.9,0,145.514,4.613,145.514,10.283z M142.877,10.283c0-4.215-3.43-7.645-7.645-7.645
	h-14.464c-4.215,0-7.646,3.429-7.646,7.645v15.434c0,4.215,3.431,7.646,7.646,7.646h14.464c4.215,0,7.645-3.431,7.645-7.646V10.283z
	"/>
</svg>
